<?xml version="1.0" standalone="no"?>
<!DOCTYPE svg PUBLIC "-//W3C//DTD SVG 20010904//EN"
 "http://www.w3.org/TR/2001/REC-SVG-20010904/DTD/svg10.dtd">
<svg version="1.0" xmlns="http://www.w3.org/2000/svg"
 width="260.000000pt" height="260.000000pt" viewBox="0 0 260.000000 260.000000"
 preserveAspectRatio="xMidYMid meet">
<metadata>
Created by potrace 1.11, written by Peter Selinger 2001-2013
</metadata>
<g transform="translate(0.000000,260.000000) scale(0.100000,-0.100000)"
fill="#000000" stroke="none">
<path d="M1169 2596 c-2 -2 -24 -6 -49 -10 -131 -17 -249 -52 -380 -113 -70
-33 -234 -134 -244 -151 -3 -5 28 -9 67 -10 184 -5 308 -22 508 -67 13 -3 214
-67 394 -127 17 -5 80 -12 142 -15 l112 -6 -20 54 c-49 130 -200 398 -245 435
-12 9 -275 19 -285 10z"/>
<path d="M1620 2556 c0 -2 17 -33 39 -68 54 -88 97 -177 142 -288 l38 -95 60
-3 c69 -3 125 20 173 71 37 40 69 102 63 119 -7 18 -135 107 -217 152 -91 50
-298 128 -298 112z"/>
<path d="M325 2159 c-132 -143 -257 -390 -296 -584 -15 -75 -18 -92 -25 -195
l-7 -94 59 50 c112 97 270 191 429 257 125 52 338 116 443 133 15 2 50 9 77
14 65 13 174 27 255 35 153 13 194 15 363 17 153 1 177 4 177 17 0 23 -37 162
-45 169 -4 4 -49 8 -102 9 -154 3 -195 11 -408 83 -179 61 -305 93 -420 106
-27 3 -53 8 -57 10 -3 2 -95 7 -205 10 l-198 7 -40 -44z"/>
<path d="M2207 2163 c-69 -108 -172 -173 -279 -175 -27 -1 -48 -4 -48 -7 0 -3
9 -47 21 -97 l21 -91 110 -2 c175 -2 377 -39 471 -88 16 -8 31 -12 33 -10 7 7
-53 154 -93 227 -44 81 -108 171 -166 235 l-44 49 -26 -41z"/>
<path d="M1427 1674 c-1 -1 -40 -4 -87 -8 -442 -33 -822 -147 -1087 -325 -146
-98 -246 -201 -237 -244 2 -12 7 -35 10 -52 38 -215 170 -473 325 -632 23 -24
47 -43 53 -43 16 0 143 79 219 136 164 125 372 325 587 564 94 105 240 253
283 288 77 63 212 118 307 125 l45 4 -2 51 c-2 28 -5 61 -7 74 -3 13 -5 33 -5
45 l-1 22 -201 -2 c-110 -1 -201 -2 -202 -3z"/>
<path d="M1946 1671 c-4 -6 -5 -14 -3 -18 3 -5 8 -37 11 -73 9 -86 14 -99 34
-95 28 5 162 -33 207 -59 63 -37 132 -111 164 -174 61 -123 76 -207 76 -429 0
-79 3 -143 6 -143 7 0 48 89 82 180 23 61 44 146 66 265 10 51 8 320 -3 365
-16 69 -192 152 -376 176 -89 12 -258 15 -264 5z"/>
<path d="M1716 1349 c-117 -40 -215 -122 -411 -344 -109 -123 -393 -409 -467
-470 -33 -27 -65 -55 -72 -61 -27 -25 -169 -127 -221 -158 l-57 -34 72 -51
c135 -94 312 -170 485 -206 86 -18 309 -29 387 -19 47 6 49 8 98 84 153 239
263 548 304 858 3 23 8 60 11 82 3 21 8 107 10 190 l4 150 -42 0 c-23 -1 -69
-10 -101 -21z"/>
<path d="M1969 1253 c-1 -65 -2 -129 -4 -143 -1 -14 -5 -59 -9 -100 -23 -276
-135 -640 -270 -880 -33 -58 -41 -80 -30 -80 33 0 226 83 304 131 108 65 180
122 262 205 108 110 100 83 100 347 -1 264 -5 305 -37 400 -40 117 -111 190
-214 221 -104 31 -101 34 -102 -101z"/>
</g>
</svg>
