<?xml version="1.0" standalone="no"?>
<!DOCTYPE svg PUBLIC "-//W3C//DTD SVG 20010904//EN"
 "http://www.w3.org/TR/2001/REC-SVG-20010904/DTD/svg10.dtd">
<svg version="1.0" xmlns="http://www.w3.org/2000/svg"
 width="600.000000pt" height="600.000000pt" viewBox="0 0 600.000000 600.000000"
 preserveAspectRatio="xMidYMid meet">
<metadata>
Created by potrace 1.11, written by Peter Selinger 2001-2013
</metadata>
<g transform="translate(0.000000,600.000000) scale(0.100000,-0.100000)"
fill="#000000" stroke="none">
<path d="M2808 5985 c-2 -1 -39 -6 -83 -10 -288 -24 -620 -107 -885 -220 -157
-66 -479 -240 -467 -251 2 -2 35 0 73 5 74 9 427 7 509 -3 229 -30 492 -109
694 -210 135 -68 226 -122 411 -246 196 -130 229 -148 291 -156 88 -11 252
158 310 319 32 91 36 257 8 358 -29 105 -116 267 -175 326 -7 7 -21 24 -32 37
-16 21 -31 26 -88 31 -38 4 -80 9 -94 11 -27 6 -466 14 -472 9z"/>
<path d="M3583 5923 c3 -5 24 -39 47 -78 170 -278 202 -529 96 -760 -36 -77
-158 -245 -230 -315 l-46 -44 57 -54 c32 -29 105 -97 162 -150 57 -53 118
-110 136 -127 18 -16 48 -45 67 -63 l35 -33 195 155 c423 334 635 482 863 601
61 31 115 62 122 69 18 18 -196 203 -394 340 -165 114 -398 239 -560 302 -38
14 -81 32 -98 39 -69 30 -409 125 -446 125 -6 0 -8 -3 -6 -7z"/>
<path d="M1415 5450 c-134 -15 -171 -29 -247 -87 -182 -139 -396 -351 -514
-508 -21 -27 -41 -52 -44 -55 -17 -15 -117 -162 -178 -262 -172 -287 -301
-614 -366 -930 -26 -126 -29 -146 -40 -243 l-6 -50 18 46 c77 190 239 345 495
475 277 141 624 244 1282 383 160 34 304 64 319 67 79 14 325 72 470 111 368
98 544 203 580 346 15 63 -77 168 -249 282 -314 208 -711 355 -1140 420 -61
10 -312 13 -380 5z"/>
<path d="M5022 4940 c-189 -124 -453 -312 -660 -472 -86 -67 -159 -124 -162
-127 -3 -3 -32 -28 -65 -56 -33 -27 -72 -61 -87 -75 l-27 -25 75 -95 c42 -52
88 -111 104 -130 15 -19 69 -88 120 -152 92 -116 93 -117 119 -104 136 70 329
145 410 161 9 2 34 8 56 14 99 26 276 33 385 15 131 -22 242 -68 350 -146 71
-51 183 -158 218 -209 9 -13 19 -26 23 -29 3 -3 25 -34 49 -70 l42 -65 -7 55
c-4 30 -9 64 -11 75 -2 11 -7 36 -10 55 -15 84 -68 284 -101 380 -105 308
-254 592 -443 844 -75 100 -208 256 -218 256 -4 0 -76 -45 -160 -100z"/>
<path d="M3280 4569 c-82 -64 -103 -77 -235 -145 -238 -123 -662 -245 -1210
-348 -11 -2 -58 -12 -105 -21 -47 -9 -96 -18 -110 -21 -14 -2 -36 -7 -50 -11
-38 -10 -43 -11 -70 -16 -373 -78 -685 -176 -900 -282 -262 -130 -473 -324
-578 -531 -19 -38 -20 -54 -17 -265 1 -123 5 -231 8 -239 3 -8 8 -42 11 -75 3
-33 8 -71 11 -85 2 -13 7 -42 10 -65 24 -160 114 -462 197 -655 100 -234 273
-524 413 -694 l57 -68 32 38 c17 21 81 99 141 174 61 75 130 160 155 190 25
29 72 85 105 124 33 39 62 73 65 76 3 3 28 32 55 65 48 57 433 492 465 525 8
9 62 67 120 130 102 110 460 479 570 588 79 77 450 435 481 463 65 59 216 197
245 224 59 55 108 100 199 179 50 44 104 92 122 107 18 16 65 57 105 91 40 34
89 77 108 94 19 17 51 45 70 62 l35 31 -210 210 c-115 116 -212 211 -215 210
-3 0 -39 -27 -80 -60z"/>
<path d="M3825 4012 c-332 -251 -622 -495 -965 -810 -194 -178 -698 -687 -950
-958 -80 -86 -324 -356 -405 -449 -39 -44 -72 -82 -75 -85 -3 -3 -32 -36 -65
-75 -33 -38 -62 -72 -65 -75 -7 -6 -176 -203 -236 -276 -23 -27 -95 -112 -160
-188 l-117 -140 129 -125 c71 -70 158 -149 194 -176 36 -27 71 -55 79 -63 8
-7 81 -58 162 -112 174 -115 439 -249 624 -316 165 -59 433 -126 598 -149
l128 -17 65 32 c246 121 437 393 578 822 79 239 121 415 236 982 155 760 252
1085 409 1369 81 145 199 291 300 369 26 20 32 30 24 40 -46 60 -359 447 -372
460 -15 15 -23 10 -116 -60z"/>
<path d="M4997 3803 c-1 0 -24 -4 -52 -7 -64 -9 -71 -10 -125 -25 -91 -26
-202 -98 -240 -155 -28 -44 -8 -97 112 -286 144 -229 245 -392 275 -445 37
-65 172 -338 196 -395 8 -19 21 -51 30 -70 26 -61 86 -246 111 -347 80 -315
80 -686 0 -957 -8 -27 -14 -54 -14 -59 0 -27 248 319 313 438 158 288 250 523
319 815 22 97 23 100 38 195 29 179 35 264 34 500 l-1 220 -42 75 c-175 308
-509 495 -899 504 -29 0 -54 0 -55 -1z"/>
<path d="M4296 3411 c-162 -86 -266 -263 -385 -656 -29 -96 -95 -358 -105
-420 -3 -16 -26 -124 -50 -240 -25 -115 -47 -221 -50 -235 -2 -14 -16 -78 -30
-142 -14 -64 -27 -127 -30 -140 -55 -275 -176 -702 -258 -907 -92 -232 -223
-447 -351 -573 -43 -43 -82 -78 -88 -78 -6 0 -8 -4 -5 -9 9 -13 295 -4 416 14
14 2 50 7 80 10 30 4 62 9 70 10 224 45 442 105 545 149 17 8 53 22 80 32 69
25 290 135 370 184 37 22 69 40 70 40 10 0 223 153 305 218 173 139 259 229
295 307 102 223 118 518 50 890 -53 285 -167 612 -322 919 -164 328 -390 631
-482 649 -53 11 -66 9 -125 -22z"/>
</g>
</svg>
